<svg xmlns="http://www.w3.org/2000/svg" viewBox="0 0 100 100">
  <defs>
    <!-- 中心星光渐变 - 从黄到橙到紫蓝 -->
    <radialGradient id="starGradient" cx="50%" cy="45%" r="50%">
      <stop offset="0%" style="stop-color:#FFFFFF;stop-opacity:1" />
      <stop offset="20%" style="stop-color:#FFF8DC;stop-opacity:1" />
      <stop offset="40%" style="stop-color:#FFD700;stop-opacity:0.9" />
      <stop offset="60%" style="stop-color:#FF8C42;stop-opacity:0.7" />
      <stop offset="80%" style="stop-color:#A855F7;stop-opacity:0.5" />
      <stop offset="100%" style="stop-color:#6366F1;stop-opacity:0" />
    </radialGradient>

    <!-- 光芒渐变 -->
    <linearGradient id="rayGradient1" x1="0%" y1="0%" x2="100%" y2="0%">
      <stop offset="0%" style="stop-color:#2D2D3A;stop-opacity:1" />
      <stop offset="50%" style="stop-color:#4A4A5A;stop-opacity:1" />
      <stop offset="100%" style="stop-color:#2D2D3A;stop-opacity:1" />
    </linearGradient>

    <linearGradient id="rayGradient2" x1="0%" y1="0%" x2="100%" y2="0%">
      <stop offset="0%" style="stop-color:#3D3D4A;stop-opacity:1" />
      <stop offset="50%" style="stop-color:#6B5B4F;stop-opacity:1" />
      <stop offset="100%" style="stop-color:#3D3D4A;stop-opacity:1" />
    </linearGradient>

    <!-- 灯泡底座渐变 -->
    <linearGradient id="baseGradient" x1="0%" y1="0%" x2="0%" y2="100%">
      <stop offset="0%" style="stop-color:#4A4A5A;stop-opacity:1" />
      <stop offset="50%" style="stop-color:#3D3D4A;stop-opacity:1" />
      <stop offset="100%" style="stop-color:#2D2D3A;stop-opacity:1" />
    </linearGradient>

    <!-- 发光滤镜 -->
    <filter id="glow" x="-50%" y="-50%" width="200%" height="200%">
      <feGaussianBlur stdDeviation="2" result="coloredBlur"/>
      <feMerge>
        <feMergeNode in="coloredBlur"/>
        <feMergeNode in="SourceGraphic"/>
      </feMerge>
    </filter>
  </defs>

  <!-- 背景圆角矩形 -->
  <rect x="5" y="5" width="90" height="90" rx="22" fill="#FAFAFA"/>

  <!-- 光芒射线 - 右上（暖色调） -->
  <g transform="translate(50, 45)">
    <!-- 顶部 -->
    <rect x="-3" y="-38" width="6" height="16" rx="3" fill="url(#rayGradient2)"/>
    <!-- 右上 -->
    <rect x="-3" y="-38" width="6" height="14" rx="3" fill="url(#rayGradient1)" transform="rotate(45) translate(0, 4)"/>
    <!-- 右中 -->
    <rect x="-3" y="-38" width="6" height="16" rx="3" fill="url(#rayGradient1)" transform="rotate(90) translate(0, 8)"/>
    <!-- 右下 -->
    <rect x="-3" y="-38" width="6" height="14" rx="3" fill="url(#rayGradient1)" transform="rotate(135) translate(0, 4)"/>
    <!-- 左下 -->
    <rect x="-3" y="-38" width="6" height="14" rx="3" fill="url(#rayGradient1)" transform="rotate(-135) translate(0, 4)"/>
    <!-- 左中 -->
    <rect x="-3" y="-38" width="6" height="16" rx="3" fill="url(#rayGradient1)" transform="rotate(-90) translate(0, 8)"/>
    <!-- 左上 -->
    <rect x="-3" y="-38" width="6" height="14" rx="3" fill="url(#rayGradient2)" transform="rotate(-45) translate(0, 4)"/>
  </g>

  <!-- 中心发光区域 -->
  <ellipse cx="50" cy="42" rx="20" ry="22" fill="url(#starGradient)" filter="url(#glow)"/>

  <!-- 四叶星光 -->
  <g transform="translate(50, 42)" filter="url(#glow)">
    <!-- 上叶 -->
    <path d="M0,-18 Q8,-8 0,0 Q-8,-8 0,-18" fill="#FFD700" opacity="0.9"/>
    <!-- 右叶 -->
    <path d="M18,0 Q8,8 0,0 Q8,-8 18,0" fill="#FF8C42" opacity="0.8"/>
    <!-- 下叶 -->
    <path d="M0,18 Q-8,8 0,0 Q8,8 0,18" fill="#A855F7" opacity="0.7"/>
    <!-- 左叶 -->
    <path d="M-18,0 Q-8,-8 0,0 Q-8,8 -18,0" fill="#6366F1" opacity="0.6"/>
    <!-- 中心高光 -->
    <circle cx="0" cy="0" r="6" fill="white" opacity="0.9"/>
  </g>

  <!-- 灯泡底座 -->
  <g transform="translate(50, 68)">
    <!-- 底座上部 -->
    <path d="M-12,0 Q-12,8 0,10 Q12,8 12,0 L10,8 Q0,12 -10,8 Z" fill="url(#baseGradient)"/>
    <!-- 底座中部 -->
    <path d="M-10,8 Q0,12 10,8 L9,14 Q0,18 -9,14 Z" fill="url(#baseGradient)"/>
    <!-- 底座下部 -->
    <path d="M-9,14 Q0,18 9,14 L7,20 Q0,24 -7,20 Z" fill="url(#baseGradient)"/>
    <!-- 触点 -->
    <circle cx="0" cy="24" r="3" fill="#2D2D3A"/>
  </g>
</svg>
