<svg xmlns="http://www.w3.org/2000/svg" viewBox="0 0 100 100">
  <defs>
    <radialGradient id="g" cx="50%" cy="50%" r="50%">
      <stop offset="0%" style="stop-color:#FFF8DC;stop-opacity:0.4" />
      <stop offset="50%" style="stop-color:#FFD700;stop-opacity:0.1" />
      <stop offset="100%" style="stop-color:#6366F1;stop-opacity:0" />
    </radialGradient>
  </defs>

  <rect width="100" height="100" rx="22" fill="#0F0F1A"/>
  <circle cx="50" cy="46" r="36" fill="url(#g)"/>

  <!-- 4条主光芒 -->
  <rect x="48" y="8" width="4" height="20" rx="2" fill="#FFD700" opacity="0.9"/>
  <rect x="48" y="64" width="4" height="20" rx="2" fill="#A855F7" opacity="0.75"/>
  <rect x="8" y="44" width="20" height="4" rx="2" fill="#6366F1" opacity="0.8"/>
  <rect x="72" y="44" width="20" height="4" rx="2" fill="#FF8C42" opacity="0.85"/>

  <!-- 4条对角光芒 -->
  <rect x="18" y="22" width="3" height="14" rx="1.5" fill="#818CF8" opacity="0.7" transform="rotate(45 19.5 29)"/>
  <rect x="79" y="22" width="3" height="14" rx="1.5" fill="#FFB347" opacity="0.7" transform="rotate(-45 80.5 29)"/>
  <rect x="18" y="64" width="3" height="14" rx="1.5" fill="#818CF8" opacity="0.6" transform="rotate(-45 19.5 71)"/>
  <rect x="79" y="64" width="3" height="14" rx="1.5" fill="#C084FC" opacity="0.6" transform="rotate(45 80.5 71)"/>

  <!-- 四叶星光 -->
  <path d="M50,26c5,5 5,14 0,20c-5,-6 -5,-15 0,-20z" fill="#FFD700" opacity="0.95"/>
  <path d="M68,44c-5,5 -14,5 -20,0c6,-5 15,-5 20,0z" fill="#FF8C42" opacity="0.9"/>
  <path d="M50,62c-5,-5 -5,-14 0,-20c5,6 5,15 0,20z" fill="#A855F7" opacity="0.85"/>
  <path d="M32,44c5,-5 14,-5 20,0c-6,5 -15,5 -20,0z" fill="#6366F1" opacity="0.9"/>

  <!-- 中心白光 -->
  <circle cx="50" cy="44" r="6" fill="white" opacity="0.9"/>
  <circle cx="50" cy="44" r="3" fill="white"/>
</svg>
