<svg xmlns="http://www.w3.org/2000/svg" viewBox="0 0 100 100">
  <defs>
    <!-- 灵光渐变 - 金色到橙色的光芒 -->
    <radialGradient id="glowGradient" cx="50%" cy="50%" r="50%">
      <stop offset="0%" style="stop-color:#FFD700;stop-opacity:1" />
      <stop offset="40%" style="stop-color:#FFA500;stop-opacity:0.9" />
      <stop offset="70%" style="stop-color:#FF6347;stop-opacity:0.6" />
      <stop offset="100%" style="stop-color:#FF4500;stop-opacity:0" />
    </radialGradient>
    <!-- 灯泡渐变 -->
    <linearGradient id="bulbGradient" x1="0%" y1="0%" x2="100%" y2="100%">
      <stop offset="0%" style="stop-color:#FFF8DC;stop-opacity:1" />
      <stop offset="50%" style="stop-color:#FFE4B5;stop-opacity:1" />
      <stop offset="100%" style="stop-color:#FFD700;stop-opacity:1" />
    </linearGradient>
    <!-- 光芒效果 -->
    <filter id="glow" x="-50%" y="-50%" width="200%" height="200%">
      <feGaussianBlur stdDeviation="3" result="coloredBlur"/>
      <feMerge>
        <feMergeNode in="coloredBlur"/>
        <feMergeNode in="SourceGraphic"/>
      </feMerge>
    </filter>
  </defs>

  <!-- 背景光芒 -->
  <circle cx="50" cy="50" r="45" fill="url(#glowGradient)" opacity="0.3" />
  <circle cx="50" cy="50" r="35" fill="url(#glowGradient)" opacity="0.5" />

  <!-- 光芒射线 -->
  <g stroke="#FFD700" stroke-width="2" stroke-linecap="round" opacity="0.8">
    <line x1="50" y1="8" x2="50" y2="18" />
    <line x1="50" y1="82" x2="50" y2="92" />
    <line x1="8" y1="50" x2="18" y2="50" />
    <line x1="82" y1="50" x2="92" y2="50" />
    <line x1="20" y1="20" x2="27" y2="27" />
    <line x1="73" y1="73" x2="80" y2="80" />
    <line x1="80" y1="20" x2="73" y2="27" />
    <line x1="27" y1="73" x2="20" y2="80" />
  </g>

  <!-- 灯泡主体 -->
  <g filter="url(#glow)">
    <!-- 灯泡玻璃部分 -->
    <ellipse cx="50" cy="42" rx="22" ry="25" fill="url(#bulbGradient)" />
    <!-- 灯泡底座 -->
    <rect x="42" y="65" width="16" height="8" rx="2" fill="#8B7355" />
    <rect x="44" y="73" width="12" height="4" rx="1" fill="#6B5344" />
    <!-- 灯丝 -->
    <path d="M42 50 Q50 40 58 50" stroke="#FF8C00" stroke-width="1.5" fill="none" opacity="0.6" />
    <path d="M45 52 Q50 45 55 52" stroke="#FF8C00" stroke-width="1.5" fill="none" opacity="0.6" />
  </g>

  <!-- 高光 -->
  <ellipse cx="42" cy="32" rx="6" ry="8" fill="white" opacity="0.6" />
</svg>
